<svg xmlns="http://www.w3.org/2000/svg" viewBox="0 0 32 32" width="32" height="32">
  <defs>
    <linearGradient id="aaveGradient" x1="0%" y1="0%" x2="100%" y2="100%">
      <stop offset="0%" style="stop-color:#B6509E"/>
      <stop offset="100%" style="stop-color:#2EBAC6"/>
    </linearGradient>
  </defs>
  <circle cx="16" cy="16" r="16" fill="url(#aaveGradient)"/>
  <path d="M22.5 21.5L17.9 10.5C17.5 9.5 16.8 9 16 9C15.2 9 14.5 9.5 14.1 10.5L9.5 21.5C9.3 22 9.5 22.5 10 22.7C10.5 22.9 11 22.7 11.2 22.2L12.5 19H19.5L20.8 22.2C21 22.7 21.5 22.9 22 22.7C22.5 22.5 22.7 22 22.5 21.5ZM13.3 17L16 10.5L18.7 17H13.3Z" fill="white"/>
</svg>
